<svg width="423" height="145" viewBox="0 0 847 290" fill="none" xmlns="http://www.w3.org/2000/svg">
<path d="M299.418 279.144V243.421H314.876C318.071 243.421 320.828 243.943 323.139 244.98C325.451 246.016 327.24 247.506 328.499 249.441C329.759 251.376 330.388 253.696 330.388 256.383C330.388 259.071 329.759 261.329 328.499 263.272C327.24 265.207 325.451 266.696 323.139 267.733C320.828 268.77 318.071 269.292 314.876 269.292H304.01L307.681 265.568V279.137H299.418V279.144ZM307.681 266.489L304.01 262.557H314.423C316.973 262.557 318.877 262.012 320.137 260.929C321.396 259.839 322.026 258.326 322.026 256.391C322.026 254.456 321.396 252.889 320.137 251.799C318.877 250.708 316.973 250.163 314.423 250.163H304.01L307.681 246.231V266.489Z" fill="#00B2AD"/>
<path d="M349.318 279.551C346.392 279.551 343.796 278.937 341.539 277.716C339.273 276.495 337.492 274.813 336.178 272.686C334.873 270.559 334.213 268.14 334.213 265.414C334.213 262.688 334.865 260.215 336.178 258.088C337.484 255.961 339.273 254.295 341.539 253.089C343.804 251.883 346.392 251.277 349.318 251.277C352.243 251.277 354.793 251.883 357.074 253.089C359.354 254.302 361.136 255.953 362.434 258.065C363.724 260.177 364.369 262.626 364.369 265.414C364.369 268.202 363.724 270.559 362.434 272.686C361.144 274.813 359.354 276.487 357.074 277.716C354.793 278.945 352.205 279.551 349.318 279.551ZM349.318 273.016C350.646 273.016 351.836 272.709 352.888 272.095C353.941 271.481 354.778 270.605 355.392 269.469C356.006 268.332 356.313 266.981 356.313 265.414C356.313 263.847 356.006 262.45 355.392 261.329C354.778 260.208 353.948 259.34 352.888 258.725C351.836 258.111 350.646 257.804 349.318 257.804C347.989 257.804 346.799 258.111 345.747 258.725C344.695 259.34 343.85 260.208 343.22 261.329C342.591 262.45 342.276 263.809 342.276 265.414C342.276 267.019 342.591 268.332 343.22 269.469C343.85 270.605 344.695 271.488 345.747 272.095C346.799 272.702 347.989 273.016 349.318 273.016Z" fill="#00B2AD"/>
<path d="M375.803 279.144L365.905 251.691H373.407L381.624 275.313H378.053L386.623 251.691H393.358L401.675 275.313H398.104L406.574 251.691H413.616L403.663 279.144H395.961L388.666 258.887H391.016L383.459 279.144H375.803Z" fill="#00B2AD"/>
<path d="M430.809 279.551C427.676 279.551 424.935 278.937 422.57 277.716C420.204 276.495 418.377 274.813 417.087 272.686C415.797 270.559 415.152 268.14 415.152 265.414C415.152 262.688 415.789 260.215 417.064 258.088C418.338 255.961 420.082 254.295 422.293 253.089C424.505 251.883 427.008 251.277 429.796 251.277C432.583 251.277 434.902 251.845 437.068 252.981C439.226 254.126 440.938 255.754 442.198 257.881C443.457 260.008 444.087 262.55 444.087 265.506C444.087 265.813 444.071 266.159 444.033 266.551C443.995 266.942 443.964 267.311 443.933 267.649H421.633V263.003H439.748L436.684 264.377C436.684 262.949 436.392 261.713 435.816 260.653C435.233 259.601 434.442 258.772 433.42 258.18C432.399 257.589 431.209 257.289 429.85 257.289C428.49 257.289 427.292 257.589 426.256 258.18C425.219 258.779 424.413 259.609 423.829 260.684C423.245 261.759 422.961 263.026 422.961 264.485V265.714C422.961 267.211 423.292 268.532 423.96 269.668C424.628 270.805 425.557 271.673 426.763 272.272C427.968 272.871 429.389 273.162 431.024 273.162C432.491 273.162 433.774 272.94 434.879 272.502C435.985 272.057 436.999 271.396 437.92 270.513L442.152 275.105C440.892 276.534 439.31 277.632 437.406 278.4C435.501 279.168 433.305 279.551 430.825 279.551H430.809Z" fill="#00B2AD"/>
<path d="M450 279.144V251.691H457.602V259.447L456.527 257.205C457.341 255.27 458.654 253.795 460.459 252.789C462.264 251.783 464.46 251.284 467.04 251.284V258.633C466.702 258.603 466.395 258.572 466.126 258.556C465.85 258.541 465.566 258.533 465.258 258.533C463.078 258.533 461.319 259.155 459.975 260.392C458.631 261.636 457.956 263.563 457.956 266.182V279.144H449.992H450Z" fill="#00B2AD"/>
<path d="M485.77 279.551C482.637 279.551 479.895 278.937 477.53 277.716C475.165 276.495 473.337 274.813 472.047 272.686C470.757 270.559 470.112 268.14 470.112 265.414C470.112 262.688 470.749 260.215 472.024 258.088C473.299 255.961 475.042 254.295 477.253 253.089C479.465 251.883 481.968 251.277 484.756 251.277C487.544 251.277 489.863 251.845 492.028 252.981C494.186 254.126 495.899 255.754 497.158 257.881C498.417 260.008 499.047 262.55 499.047 265.506C499.047 265.813 499.032 266.159 498.993 266.551C498.955 266.942 498.924 267.311 498.893 267.649H476.593V263.003H494.708L491.644 264.377C491.644 262.949 491.352 261.713 490.776 260.653C490.193 259.601 489.402 258.772 488.381 258.18C487.359 257.589 486.169 257.289 484.81 257.289C483.451 257.289 482.253 257.589 481.216 258.18C480.179 258.779 479.373 259.609 478.789 260.684C478.206 261.759 477.921 263.026 477.921 264.485V265.714C477.921 267.211 478.252 268.532 478.912 269.668C479.572 270.805 480.509 271.673 481.715 272.272C482.921 272.871 484.341 273.162 485.977 273.162C487.444 273.162 488.726 272.94 489.832 272.502C490.938 272.057 491.951 271.396 492.873 270.513L497.104 275.105C495.845 276.534 494.263 277.632 492.358 278.4C490.454 279.168 488.258 279.551 485.777 279.551H485.77Z" fill="#00B2AD"/>
<path d="M516.748 279.551C514.16 279.551 511.833 278.968 509.752 277.793C507.678 276.618 506.035 274.975 504.829 272.871C503.624 270.759 503.017 268.278 503.017 265.422C503.017 262.565 503.616 260.031 504.829 257.919C506.035 255.807 507.678 254.179 509.752 253.02C511.825 251.86 514.16 251.284 516.748 251.284C519.059 251.284 521.086 251.791 522.822 252.812C524.557 253.834 525.901 255.377 526.853 257.458C527.806 259.532 528.282 262.189 528.282 265.422C528.282 268.655 527.821 271.266 526.907 273.354C525.986 275.451 524.673 277.002 522.952 278.023C521.232 279.045 519.167 279.551 516.755 279.551H516.748ZM518.122 273.016C519.412 273.016 520.587 272.709 521.639 272.095C522.691 271.481 523.536 270.605 524.166 269.469C524.795 268.332 525.11 266.981 525.11 265.414C525.11 263.847 524.795 262.45 524.166 261.329C523.536 260.208 522.691 259.34 521.639 258.725C520.587 258.111 519.412 257.804 518.122 257.804C516.832 257.804 515.603 258.111 514.551 258.725C513.499 259.34 512.655 260.208 512.025 261.329C511.395 262.45 511.08 263.809 511.08 265.414C511.08 267.019 511.395 268.332 512.025 269.469C512.655 270.605 513.492 271.488 514.551 272.095C515.603 272.709 516.794 273.016 518.122 273.016ZM525.318 279.144V273.531L525.471 265.368L524.964 257.251V241.278H532.928V279.144H525.325H525.318Z" fill="#00B2AD"/>
<path d="M555.935 279.144V241.278H563.898V257.251L563.383 265.368L563.537 273.531V279.144H555.935ZM572.161 279.551C569.75 279.551 567.668 279.045 565.933 278.023C564.197 277.002 562.869 275.451 561.955 273.354C561.034 271.258 560.573 268.616 560.573 265.422C560.573 262.227 561.057 259.539 562.024 257.458C562.992 255.377 564.343 253.834 566.079 252.812C567.814 251.791 569.842 251.284 572.153 251.284C574.741 251.284 577.06 251.86 579.118 253.02C581.176 254.172 582.812 255.807 584.018 257.919C585.223 260.031 585.83 262.534 585.83 265.422C585.83 268.309 585.223 270.766 584.018 272.871C582.812 274.975 581.176 276.618 579.118 277.793C577.06 278.968 574.741 279.551 572.153 279.551H572.161ZM570.779 273.016C572.107 273.016 573.29 272.709 574.326 272.095C575.363 271.481 576.192 270.605 576.822 269.469C577.452 268.332 577.767 266.981 577.767 265.414C577.767 263.847 577.452 262.45 576.822 261.329C576.192 260.208 575.363 259.34 574.326 258.725C573.29 258.111 572.107 257.804 570.779 257.804C569.45 257.804 568.26 258.111 567.208 258.725C566.156 259.34 565.319 260.208 564.704 261.329C564.09 262.45 563.79 263.809 563.79 265.414C563.79 267.019 564.098 268.332 564.704 269.469C565.319 270.605 566.148 271.488 567.208 272.095C568.26 272.709 569.45 273.016 570.779 273.016Z" fill="#00B2AD"/>
<path d="M594.461 289.45C593.033 289.45 591.62 289.227 590.222 288.79C588.825 288.344 587.688 287.738 586.805 286.954L589.716 281.287C590.33 281.832 591.029 282.255 591.827 282.562C592.626 282.869 593.417 283.022 594.2 283.022C595.321 283.022 596.22 282.761 596.88 282.232C597.541 281.702 598.147 280.826 598.693 279.605L600.121 276.234L600.735 275.366L610.588 251.691H618.244L605.842 280.826C604.959 283.038 603.945 284.773 602.809 286.033C601.672 287.292 600.413 288.175 599.03 288.69C597.656 289.197 596.128 289.458 594.461 289.458V289.45ZM599.153 280.212L586.905 251.691H595.122L604.613 274.652L599.153 280.212Z" fill="#00B2AD"/>
<path d="M654.981 279.751C652.155 279.751 649.56 279.298 647.202 278.4C644.837 277.501 642.779 276.219 641.028 274.545C639.277 272.878 637.918 270.92 636.943 268.678C635.967 266.435 635.491 263.963 635.491 261.275C635.491 258.587 635.975 256.122 636.943 253.88C637.91 251.63 639.277 249.679 641.051 248.013C642.817 246.347 644.898 245.064 647.279 244.158C649.659 243.259 652.278 242.806 655.135 242.806C658.299 242.806 661.148 243.336 663.682 244.388C666.216 245.44 668.351 246.976 670.086 248.981L664.78 253.88C663.49 252.521 662.077 251.507 660.541 250.839C659.005 250.171 657.346 249.848 655.542 249.848C653.737 249.848 652.224 250.117 650.796 250.662C649.368 251.207 648.131 251.991 647.095 253.012C646.058 254.033 645.259 255.239 644.699 256.637C644.138 258.034 643.854 259.578 643.854 261.283C643.854 262.987 644.138 264.477 644.699 265.875C645.259 267.272 646.058 268.486 647.095 269.522C648.131 270.559 649.36 271.35 650.765 271.895C652.171 272.441 653.729 272.709 655.434 272.709C657.139 272.709 658.66 272.448 660.203 271.918C661.747 271.396 663.252 270.498 664.718 269.238L669.41 275.205C667.475 276.672 665.218 277.793 662.653 278.576C660.088 279.359 657.523 279.751 654.974 279.751H654.981ZM661.869 274.138V260.714H669.418V275.205L661.869 274.13V274.138Z" fill="#00B2AD"/>
<path d="M685.898 272.51H705.342V279.144H677.681V243.421H704.673V250.056H685.898V272.51ZM685.283 257.812H702.477V264.239H685.283V257.812Z" fill="#00B2AD"/>
<path d="M712.537 279.144V243.421H719.371L740.443 269.138H737.126V243.421H745.289V279.144H738.5L717.375 253.427H720.692V279.144H712.529H712.537Z" fill="#00B2AD"/>
<path d="M762.598 272.51H782.042V279.144H754.381V243.421H781.373V250.056H762.598V272.51ZM761.983 257.812H779.177V264.239H761.983V257.812Z" fill="#00B2AD"/>
<path d="M245.61 72.5812C245.61 91.9789 231.28 101.962 203.781 101.962H159.203V0.642303H203.781C227.663 0.642303 239.82 9.75754 239.82 26.552C239.82 36.8268 235.335 43.7765 226.504 47.2475C239.098 51.0103 245.61 59.5496 245.61 72.5812ZM203.781 20.1859H183.807V39.8677H203.781C211.161 39.8677 214.494 36.535 214.494 29.593C214.494 22.6509 211.161 20.1859 203.781 20.1859ZM220.284 70.2621C220.284 62.1528 215.07 58.5359 203.781 58.5359H183.807V82.4183H203.781C215.07 82.4183 220.284 78.5096 220.284 70.2621Z" fill="#063967"/>
<path d="M331.87 77.9336C327.532 93.8526 313.486 104.281 293.659 104.281C269.776 104.281 254.287 88.9379 254.287 65.7774C254.287 42.6169 270.068 27.2738 293.513 27.2738C320.582 27.2738 336.939 47.6852 328.545 70.8457H278.607C280.059 79.6768 285.119 84.7374 294.242 84.7374C300.324 84.7374 304.663 82.426 306.836 77.9336H331.878H331.87ZM278.892 57.8141H305.815C306.537 50.8644 302.198 46.0879 293.513 46.0879C285.841 46.0879 280.773 49.9966 278.892 57.8141Z" fill="#063967"/>
<path d="M372.102 49.1289V76.7741C372.102 81.2587 373.837 84.7374 380.495 84.7374C384.834 84.7374 387.591 83.2937 391.492 80.8287V100.656C387.875 102.976 382.661 104.273 375.857 104.273C351.537 104.273 348.934 87.4789 348.934 76.7741V49.1289H334.021V29.5853H348.934V9.4734H372.094V29.593H393.081V49.1366H372.094L372.102 49.1289Z" fill="#063967"/>
<path d="M434.042 49.1289V76.7741C434.042 81.2587 435.778 84.7374 442.436 84.7374C446.775 84.7374 449.531 83.2937 453.432 80.8287V100.656C449.816 102.976 444.601 104.273 437.798 104.273C413.477 104.273 410.874 87.4789 410.874 76.7741V49.1289H395.961V29.5853H410.874V9.4734H434.035V29.593H455.022V49.1366H434.035L434.042 49.1289Z" fill="#063967"/>
<path d="M537.673 77.9336C533.335 93.8526 519.289 104.281 499.462 104.281C475.579 104.281 460.09 88.9379 460.09 65.7774C460.09 42.6169 475.871 27.2738 499.316 27.2738C526.385 27.2738 542.742 47.6852 534.348 70.8457H484.41C485.862 79.6768 490.922 84.7374 500.045 84.7374C506.127 84.7374 510.466 82.426 512.639 77.9336H537.681H537.673ZM484.702 57.8141H511.626C512.347 50.8644 508.009 46.0879 499.323 46.0879C491.652 46.0879 486.584 49.9966 484.702 57.8141Z" fill="#063967"/>
<path d="M611.486 51.448C611.486 57.96 609.897 64.6179 607.147 70.2621H583.265C586.16 64.9097 587.896 60.2714 587.896 55.9327C587.896 50.4344 585.146 46.8174 580.662 46.8174C574.296 46.8174 569.519 54.3431 569.519 66.0692V101.962H546.359V29.593H569.519V41.465C572.99 32.6339 580.378 27.2815 590.215 27.2815C602.954 27.2815 611.494 36.5426 611.494 51.4557L611.486 51.448Z" fill="#063967"/>
<path d="M187.463 162.827C187.463 132.433 208.304 109.994 239.574 109.994C269.1 109.994 290.234 129.676 285.603 155.302H260.269C263.164 139.813 253.612 130.26 239.858 130.26C222.779 130.26 212.789 145.165 212.789 162.827C212.789 181.787 223.785 195.687 240.288 195.687C253.312 195.687 262.143 187.002 263.879 176.143H289.788C286.317 201.039 266.774 215.945 240.288 215.945C206.561 215.945 187.455 191.624 187.455 162.82L187.463 162.827Z" fill="#063967"/>
<path d="M454.208 189.605C449.869 205.524 435.824 215.952 415.996 215.952C392.114 215.952 376.625 200.609 376.625 177.449C376.625 154.288 392.406 138.945 415.85 138.945C442.92 138.945 459.276 159.356 450.883 182.517H400.945C402.396 191.348 407.457 196.416 416.58 196.416C422.662 196.416 427.001 194.097 429.174 189.612H454.216L454.208 189.605ZM401.237 169.485H428.16C428.882 162.536 424.543 157.759 415.858 157.759C408.186 157.759 403.118 161.668 401.237 169.485Z" fill="#063967"/>
<path d="M459.991 177.449C459.991 154.142 475.625 138.945 499.654 138.945C523.682 138.945 541.482 154.142 533.957 178.316H511.518C514.413 165.577 509.491 158.489 499.792 158.489C490.093 158.489 483.873 165.73 483.873 177.303C483.873 188.875 490.239 196.409 499.654 196.409C505.736 196.409 509.783 193.222 512.539 188.161H537.581C533.243 204.948 519.489 215.952 499.37 215.952C475.779 215.952 459.998 200.609 459.998 177.449H459.991Z" fill="#063967"/>
<path d="M623.397 213.633H596.181C595.022 201.623 588.656 194.381 580.547 191.924V178.17C588.794 178.17 594.008 173.394 594.008 167.028C594.008 161.675 590.245 158.489 584.309 158.489C575.478 158.489 569.404 165.73 569.404 177.74V213.633H546.243V116.33H569.404V153.85C573.167 144.589 581.998 138.945 594.008 138.945C609.205 138.945 617.891 147.914 617.891 161.668C617.891 172.38 612.538 180.92 603.561 185.55C613.406 190.757 620.494 200.601 623.389 213.633H623.397Z" fill="#063967"/>
<path d="M625.562 177.449C625.562 154.288 641.343 138.945 664.933 138.945C688.524 138.945 704.305 154.288 704.305 177.449C704.305 200.609 688.524 215.952 664.933 215.952C641.343 215.952 625.562 200.609 625.562 177.449ZM680.422 177.449C680.422 165.868 674.202 158.489 664.933 158.489C655.665 158.489 649.444 165.868 649.444 177.449C649.444 189.029 655.665 196.409 664.933 196.409C674.202 196.409 680.422 188.883 680.422 177.449Z" fill="#063967"/>
<path d="M781.443 141.264V213.633H758.282V202.775C753.651 210.446 745.404 215.369 735.559 215.369C715.148 215.369 712.253 194.089 712.253 181.35V141.256H735.413V181.35C735.413 189.889 737.441 196.693 744.966 196.693C753.214 196.693 758.282 188.875 758.282 177.149V141.256H781.443V141.264Z" fill="#063967"/>
<path d="M826.02 160.808V188.453C826.02 192.938 827.756 196.416 834.414 196.416C838.753 196.416 841.509 194.965 845.41 192.508V212.335C841.794 214.654 836.579 215.952 829.776 215.952C805.455 215.952 802.852 199.165 802.852 188.453V160.808H787.939V141.264H802.852V121.145H826.013V141.264H847V160.808H826.013H826.02Z" fill="#063967"/>
<path d="M344.795 138.945C333.798 138.945 325.835 144.443 322.364 153.274V112.452C315.598 116.122 307.788 118.426 299.203 119.117V213.633H322.364V177.74C322.364 165.73 328.008 157.621 335.825 157.621C341.907 157.621 345.524 162.543 345.524 170.069V213.641H368.685V170.069C368.685 150.095 360.437 138.945 344.802 138.945H344.795Z" fill="#063967"/>
<path d="M165.055 168.548L110.033 113.527V168.548V223.57L165.055 168.548Z" fill="#00B2AD"/>
<path d="M55.0116 168.548V223.57L110.033 168.548L55.0116 113.527V168.548Z" fill="#00B2AD"/>
<path d="M-0.0100098 223.57L55.0116 168.548L-0.0100098 113.527V223.57Z" fill="#00B2AD"/>
</svg>
